<svg width="36" height="36" viewBox="0 0 36 36" fill="none" xmlns="http://www.w3.org/2000/svg">
<path d="M27 3.9375H9C6.51487 3.9375 4.5 5.95237 4.5 8.4375V26.4375C4.5 28.9226 6.51487 30.9375 9 30.9375H18.5625V21.375H15.1875V17.4375H18.5625V14.625C18.5625 10.6875 20.8125 8.4375 24.1875 8.4375C25.9498 8.4375 27 9 27 9V12.375H24.75C23.1413 12.375 22.5 13.5523 22.5 14.625V17.4375H26.4375L25.875 21.375H22.5V30.9375H27C29.4851 30.9375 31.5 28.9226 31.5 26.4375V8.4375C31.5 5.95237 29.4851 3.9375 27 3.9375Z" fill="#F5F5F5"/>
</svg>
