<svg width="36" height="36" viewBox="0 0 36 36" fill="none" xmlns="http://www.w3.org/2000/svg">
<path d="M12.1388 3.9375C7.61686 3.9375 3.9375 7.61903 3.9375 12.1421V23.8601C3.9375 28.3826 7.61903 32.0625 12.1421 32.0625H23.8601C28.3826 32.0625 32.0625 28.381 32.0625 23.8579V12.1388C32.0625 7.61686 28.381 3.9375 23.8579 3.9375H12.1388ZM26.4375 8.4375C27.0585 8.4375 27.5625 8.9415 27.5625 9.5625C27.5625 10.1835 27.0585 10.6875 26.4375 10.6875C25.8165 10.6875 25.3125 10.1835 25.3125 9.5625C25.3125 8.9415 25.8165 8.4375 26.4375 8.4375ZM18 10.6875C22.0331 10.6875 25.3125 13.9669 25.3125 18C25.3125 22.0331 22.0326 25.3125 18 25.3125C13.9669 25.3125 10.6875 22.0326 10.6875 18C10.6875 13.9674 13.9669 10.6875 18 10.6875ZM18 12.9375C15.2038 12.9375 12.9375 15.2038 12.9375 18C12.9375 20.7962 15.2038 23.0625 18 23.0625C20.7962 23.0625 23.0625 20.7962 23.0625 18C23.0625 15.2038 20.7962 12.9375 18 12.9375Z" fill="#F5F5F5"/>
</svg>
